<svg width="77" height="54" viewBox="0 0 77 54" fill="none" xmlns="http://www.w3.org/2000/svg">
<g id="icon 4" clip-path="url(#clip0_58_646)">
<path id="Vector" d="M22.1375 6.7506C22.1375 10.475 19.1176 13.5004 15.4 13.5004C11.6824 13.5004 8.6625 10.475 8.6625 6.7506C8.6625 3.02615 11.6824 0.000793457 15.4 0.000793457C19.1176 0.000793457 22.1375 3.02615 22.1375 6.7506ZM7.7 25.7585C6.49687 27.1085 5.775 28.9044 5.775 30.857C5.775 32.8097 6.49687 34.6056 7.7 35.9555V25.7585ZM25.0731 19.8163C21.4998 22.9863 19.25 27.6268 19.25 32.7855C19.25 36.9198 20.6937 40.7164 23.1 43.6936V46.2852C23.1 48.4185 21.3796 50.1422 19.25 50.1422H11.55C9.42045 50.1422 7.7 48.4185 7.7 46.2852V43.0549C3.15219 40.8853 0 36.2448 0 30.857C0 23.3961 6.02764 17.3574 13.475 17.3574H17.325C20.2125 17.3574 22.8834 18.2614 25.0731 19.8043V19.8163ZM53.9 46.2852V43.6936C56.3062 40.7164 57.75 36.9198 57.75 32.7855C57.75 27.6268 55.5001 22.9863 51.9269 19.8043C54.1168 18.2614 56.7875 17.3574 59.675 17.3574H63.525C70.9724 17.3574 77 23.3961 77 30.857C77 36.2448 73.8476 40.8853 69.3 43.0549V46.2852C69.3 48.4185 67.5794 50.1422 65.45 50.1422H57.75C55.6206 50.1422 53.9 48.4185 53.9 46.2852ZM68.3375 6.7506C68.3375 10.475 65.3176 13.5004 61.6 13.5004C57.8824 13.5004 54.8625 10.475 54.8625 6.7506C54.8625 3.02615 57.8824 0.000793457 61.6 0.000793457C65.3176 0.000793457 68.3375 3.02615 68.3375 6.7506ZM69.3 25.7585V35.9676C70.5031 34.6056 71.225 32.8217 71.225 30.8691C71.225 28.9165 70.5031 27.1205 69.3 25.7706V25.7585ZM38.5 15.4289C34.253 15.4289 30.8 11.9696 30.8 7.71485C30.8 3.46007 34.253 0.000793457 38.5 0.000793457C42.7469 0.000793457 46.2 3.46007 46.2 7.71485C46.2 11.9696 42.7469 15.4289 38.5 15.4289ZM28.875 32.7855C28.875 34.7382 29.5969 36.522 30.8 37.884V27.6871C29.5969 29.0491 28.875 30.8329 28.875 32.7855ZM46.2 27.6871V37.8961C47.4031 36.5341 48.125 34.7502 48.125 32.7976C48.125 30.845 47.4031 29.049 46.2 27.6991V27.6871ZM53.9 32.7855C53.9 38.1734 50.7476 42.8138 46.2 44.9834V50.1422C46.2 52.2755 44.4794 53.9992 42.35 53.9992H34.65C32.5204 53.9992 30.8 52.2755 30.8 50.1422V44.9834C26.2522 42.8138 23.1 38.1734 23.1 32.7855C23.1 25.3246 29.1276 19.2859 36.575 19.2859H40.425C47.8724 19.2859 53.9 25.3246 53.9 32.7855Z" fill="#1074D8"/>
</g>
<defs>
<clipPath id="clip0_58_646">
<rect width="77" height="54" fill="white"/>
</clipPath>
</defs>
</svg>
